<?xml version="1.0" encoding="utf-8"?>
<!-- Generator: Adobe Illustrator 26.5.0, SVG Export Plug-In . SVG Version: 6.00 Build 0)  -->
<svg version="1.1" id="Layer_1" xmlns="http://www.w3.org/2000/svg" xmlns:xlink="http://www.w3.org/1999/xlink" x="0px" y="0px"
	 viewBox="0 0 22 22" style="enable-background:new 0 0 22 22;" xml:space="preserve">
<style type="text/css">
	.st0{fill-rule:evenodd;clip-rule:evenodd;fill:#938D89;}
</style>
<path class="st0" d="M6.8,0.8C8.1,0.3,9.6,0,11,0c1.4,0,2.9,0.3,4.2,0.8c1.3,0.6,2.5,1.4,3.6,2.4c1,1,1.8,2.2,2.4,3.6
	C21.7,8.1,22,9.6,22,11c0,1.4-0.3,2.9-0.8,4.2s-1.4,2.5-2.4,3.6c-1,1-2.2,1.8-3.6,2.4S12.4,22,11,22c-1.4,0-2.9-0.3-4.2-0.8
	s-2.5-1.4-3.6-2.4c-1-1-1.8-2.2-2.4-3.6C0.3,13.9,0,12.4,0,11c0-1.4,0.3-2.9,0.8-4.2c0.6-1.3,1.4-2.5,2.4-3.6
	C4.2,2.2,5.5,1.4,6.8,0.8z M0,11L0,11h1H0L0,11z M11,22L11,22v-1V22L11,22z M22,11L22,11h-1H22L22,11z M11,0L11,0v1V0L11,0z M11,2
	C9.8,2,8.6,2.2,7.6,2.7c-1.1,0.5-2.1,1.1-2.9,2l0,0c-0.8,0.8-1.5,1.8-2,2.9C2.2,8.6,2,9.8,2,11v0c0,1.2,0.2,2.4,0.7,3.4
	c0.5,1.1,1.1,2.1,2,2.9l0,0c0.8,0.8,1.8,1.5,2.9,2C8.6,19.8,9.8,20,11,20h0c1.2,0,2.4-0.2,3.4-0.7c1.1-0.5,2.1-1.1,2.9-2l0,0
	c0.8-0.8,1.5-1.8,2-2.9c0.5-1.1,0.7-2.3,0.7-3.4v0c0-1.2-0.2-2.4-0.7-3.4c-0.5-1.1-1.1-2.1-2-2.9l0,0c-0.8-0.8-1.8-1.5-2.9-2
	C13.4,2.2,12.2,2,11,2L11,2z"/>
<path class="st0" d="M11,4.5c0.3,0,0.6,0.1,0.9,0.4c0.2,0.2,0.4,0.6,0.4,0.9s-0.1,0.6-0.4,0.9C11.6,6.9,11.3,7,11,7
	s-0.6-0.1-0.9-0.4C9.9,6.4,9.8,6.1,9.8,5.8s0.1-0.6,0.4-0.9C10.4,4.6,10.7,4.5,11,4.5z"/>
<path class="st0" d="M9.3,9c0-0.6,0.4-1,1-1h1c0.6,0,1,0.4,1,1v6H13c0.6,0,1,0.4,1,1c0,0.6-0.4,1-1,1H9.5c-0.6,0-1-0.4-1-1
	c0-0.6,0.4-1,1-1h0.7v-5C9.7,10,9.3,9.6,9.3,9z"/>
</svg>
